<mxfile host="app.diagrams.net" modified="2021-10-30T14:49:23.157Z" agent="5.0 (Windows NT 10.0; Win64; x64) AppleWebKit/537.36 (KHTML, like Gecko) Chrome/95.0.4638.69 Safari/537.36" etag="-mIcwQ3JmTNBFfg_o5B7" version="15.6.2" type="github">
  <diagram id="qunk6GA_WOo8kIJYr950" name="Page-1">
    <mxGraphModel dx="1422" dy="794" grid="1" gridSize="10" guides="1" tooltips="1" connect="1" arrows="1" fold="1" page="1" pageScale="1" pageWidth="827" pageHeight="1169" background="#F4F1DE" math="0" shadow="0">
      <root>
        <mxCell id="0" />
        <mxCell id="1" parent="0" />
        <mxCell id="x0J6Hs-SUJabOpPmVFmc-26" value="" style="edgeStyle=orthogonalEdgeStyle;curved=0;rounded=1;sketch=0;orthogonalLoop=1;jettySize=auto;html=1;fontColor=#393C56;strokeColor=#E07A5F;strokeWidth=4;fillColor=#F2CC8F;" parent="1" source="x0J6Hs-SUJabOpPmVFmc-2" target="x0J6Hs-SUJabOpPmVFmc-25" edge="1">
          <mxGeometry relative="1" as="geometry" />
        </mxCell>
        <mxCell id="x0J6Hs-SUJabOpPmVFmc-31" value="" style="edgeStyle=orthogonalEdgeStyle;curved=0;rounded=1;sketch=0;orthogonalLoop=1;jettySize=auto;html=1;fontColor=#393C56;strokeColor=#E07A5F;strokeWidth=4;fillColor=#F2CC8F;" parent="1" source="x0J6Hs-SUJabOpPmVFmc-2" target="x0J6Hs-SUJabOpPmVFmc-32" edge="1">
          <mxGeometry relative="1" as="geometry">
            <Array as="points">
              <mxPoint x="405" y="550" />
              <mxPoint x="665" y="550" />
            </Array>
          </mxGeometry>
        </mxCell>
        <mxCell id="x0J6Hs-SUJabOpPmVFmc-2" value="&lt;h2&gt;&lt;font face=&quot;Comic Sans MS&quot;&gt;R1&lt;/font&gt;&lt;/h2&gt;" style="rounded=1;whiteSpace=wrap;html=1;strokeWidth=2;fillWeight=4;hachureGap=8;hachureAngle=45;sketch=1;fontColor=#393C56;opacity=60;fillColor=#A9C4EB;" parent="1" vertex="1">
          <mxGeometry x="300" y="390" width="210" height="100" as="geometry" />
        </mxCell>
        <mxCell id="x0J6Hs-SUJabOpPmVFmc-28" value="" style="edgeStyle=orthogonalEdgeStyle;curved=0;rounded=1;sketch=0;orthogonalLoop=1;jettySize=auto;html=1;fontColor=#393C56;strokeColor=#E07A5F;strokeWidth=4;fillColor=#F2CC8F;" parent="1" source="x0J6Hs-SUJabOpPmVFmc-25" target="x0J6Hs-SUJabOpPmVFmc-27" edge="1">
          <mxGeometry relative="1" as="geometry" />
        </mxCell>
        <mxCell id="x0J6Hs-SUJabOpPmVFmc-25" value="&lt;b&gt;&lt;font style=&quot;font-size: 17px&quot;&gt;美术目标&lt;br&gt;&lt;/font&gt;&lt;/b&gt;" style="whiteSpace=wrap;html=1;rounded=1;fontColor=#393C56;strokeWidth=2;fillColor=#A9C4EB;opacity=60;sketch=1;fillWeight=4;hachureGap=8;hachureAngle=45;" parent="1" vertex="1">
          <mxGeometry x="345" y="590" width="120" height="60" as="geometry" />
        </mxCell>
        <mxCell id="iNKctxHvpy_qpzK7dmA8-24" style="edgeStyle=orthogonalEdgeStyle;rounded=1;orthogonalLoop=1;jettySize=auto;html=1;exitX=0.5;exitY=1;exitDx=0;exitDy=0;strokeColor=#E07A5F;strokeWidth=4;" parent="1" source="x0J6Hs-SUJabOpPmVFmc-27" target="iNKctxHvpy_qpzK7dmA8-31" edge="1">
          <mxGeometry relative="1" as="geometry">
            <mxPoint x="140" y="920" as="targetPoint" />
          </mxGeometry>
        </mxCell>
        <mxCell id="iNKctxHvpy_qpzK7dmA8-33" style="edgeStyle=orthogonalEdgeStyle;rounded=1;orthogonalLoop=1;jettySize=auto;html=1;exitX=0.5;exitY=1;exitDx=0;exitDy=0;strokeColor=#E07A5F;strokeWidth=4;" parent="1" source="x0J6Hs-SUJabOpPmVFmc-27" edge="1">
          <mxGeometry relative="1" as="geometry">
            <mxPoint x="300" y="920" as="targetPoint" />
          </mxGeometry>
        </mxCell>
        <mxCell id="iNKctxHvpy_qpzK7dmA8-35" style="edgeStyle=orthogonalEdgeStyle;rounded=1;orthogonalLoop=1;jettySize=auto;html=1;exitX=0.5;exitY=1;exitDx=0;exitDy=0;strokeColor=#E07A5F;strokeWidth=4;entryX=0.5;entryY=0;entryDx=0;entryDy=0;" parent="1" source="x0J6Hs-SUJabOpPmVFmc-27" target="iNKctxHvpy_qpzK7dmA8-36" edge="1">
          <mxGeometry relative="1" as="geometry">
            <mxPoint x="450" y="900" as="targetPoint" />
          </mxGeometry>
        </mxCell>
        <mxCell id="x0J6Hs-SUJabOpPmVFmc-27" value="&lt;b&gt;类型：像素画&lt;br&gt;场景：城市建筑，灯光，机械，人物，特效&lt;br&gt;&lt;/b&gt;" style="whiteSpace=wrap;html=1;rounded=1;fontColor=#393C56;strokeWidth=2;fillColor=#A9C4EB;opacity=60;sketch=1;fillWeight=4;hachureGap=8;hachureAngle=45;" parent="1" vertex="1">
          <mxGeometry x="345" y="730" width="120" height="60" as="geometry" />
        </mxCell>
        <mxCell id="x0J6Hs-SUJabOpPmVFmc-30" value="&lt;h2&gt;&lt;br&gt;&lt;/h2&gt;" style="rounded=1;whiteSpace=wrap;html=1;strokeWidth=2;fillWeight=4;hachureGap=8;hachureAngle=45;sketch=1;fontColor=#393C56;opacity=60;fillColor=#A9C4EB;" parent="1" vertex="1">
          <mxGeometry x="580" y="740" width="160" height="60" as="geometry" />
        </mxCell>
        <mxCell id="x0J6Hs-SUJabOpPmVFmc-33" style="edgeStyle=orthogonalEdgeStyle;curved=0;rounded=1;sketch=0;orthogonalLoop=1;jettySize=auto;html=1;fontColor=#393C56;strokeColor=#E07A5F;strokeWidth=4;fillColor=#F2CC8F;" parent="1" source="x0J6Hs-SUJabOpPmVFmc-32" target="x0J6Hs-SUJabOpPmVFmc-30" edge="1">
          <mxGeometry relative="1" as="geometry" />
        </mxCell>
        <mxCell id="x0J6Hs-SUJabOpPmVFmc-32" value="" style="whiteSpace=wrap;html=1;rounded=1;fontColor=#393C56;strokeWidth=2;fillColor=#A9C4EB;opacity=60;sketch=1;fillWeight=4;hachureGap=8;hachureAngle=45;" parent="1" vertex="1">
          <mxGeometry x="605" y="595" width="110" height="50" as="geometry" />
        </mxCell>
        <mxCell id="iNKctxHvpy_qpzK7dmA8-31" value="&lt;ul style=&quot;font-family: &amp;#34;helvetica&amp;#34; ; font-size: 16px&quot;&gt;&lt;li&gt;&lt;b&gt;&lt;i&gt;雾效&amp;nbsp;&lt;/i&gt;&lt;/b&gt;&lt;/li&gt;&lt;li&gt;&lt;b&gt;&lt;i&gt;体积光&lt;/i&gt;&lt;/b&gt;&lt;/li&gt;&lt;li&gt;&lt;b&gt;&lt;i&gt;景深&lt;/i&gt;&lt;/b&gt;&lt;/li&gt;&lt;li&gt;&lt;b&gt;&lt;i&gt;辉光&lt;/i&gt;&lt;/b&gt;&lt;/li&gt;&lt;li&gt;&lt;b&gt;&lt;i&gt;len flare&lt;/i&gt;&lt;/b&gt;&lt;/li&gt;&lt;/ul&gt;" style="shape=parallelogram;perimeter=parallelogramPerimeter;whiteSpace=wrap;html=1;fixedSize=1;rounded=1;fontColor=#393C56;strokeWidth=2;fillColor=#A9C4EB;opacity=60;sketch=1;fillWeight=4;hachureGap=8;hachureAngle=45;arcSize=26;size=20;align=left;" parent="1" vertex="1">
          <mxGeometry x="80" y="915" width="140" height="105" as="geometry" />
        </mxCell>
        <mxCell id="iNKctxHvpy_qpzK7dmA8-34" value="&lt;ul style=&quot;font-family: &amp;#34;helvetica&amp;#34; ; font-size: 16px&quot;&gt;&lt;li&gt;&lt;i&gt;&lt;b&gt;背景建筑&lt;/b&gt;&lt;/i&gt;&lt;/li&gt;&lt;li&gt;&lt;i&gt;&lt;b&gt;前景建筑&lt;/b&gt;&lt;/i&gt;&lt;/li&gt;&lt;li&gt;&lt;i&gt;&lt;b&gt;天空&lt;/b&gt;&lt;/i&gt;&lt;/li&gt;&lt;/ul&gt;" style="shape=parallelogram;perimeter=parallelogramPerimeter;whiteSpace=wrap;html=1;fixedSize=1;rounded=1;fontColor=#393C56;strokeWidth=2;fillColor=#A9C4EB;opacity=60;sketch=1;fillWeight=4;hachureGap=8;hachureAngle=45;arcSize=26;size=10;align=left;" parent="1" vertex="1">
          <mxGeometry x="250" y="915" width="120" height="85" as="geometry" />
        </mxCell>
        <mxCell id="iNKctxHvpy_qpzK7dmA8-36" value="&lt;ul style=&quot;font-family: &amp;#34;helvetica&amp;#34;&quot;&gt;&lt;li&gt;&lt;font style=&quot;font-size: 16px&quot;&gt;&lt;b&gt;&lt;i&gt;机械，人物&lt;/i&gt;&lt;/b&gt;&lt;/font&gt;&lt;/li&gt;&lt;/ul&gt;" style="shape=parallelogram;perimeter=parallelogramPerimeter;whiteSpace=wrap;html=1;fixedSize=1;rounded=1;fontColor=#393C56;strokeWidth=2;fillColor=#A9C4EB;opacity=60;sketch=1;fillWeight=4;hachureGap=8;hachureAngle=45;arcSize=26;size=10;align=left;" parent="1" vertex="1">
          <mxGeometry x="390" y="915" width="150" height="55" as="geometry" />
        </mxCell>
        <mxCell id="5SCztgLRrLlrjDLLtxP2-1" value="&lt;h2&gt;&lt;font face=&quot;Comic Sans MS&quot;&gt;真实进程&lt;/font&gt;&lt;/h2&gt;" style="rounded=1;whiteSpace=wrap;html=1;strokeWidth=2;fillWeight=4;hachureGap=8;hachureAngle=45;sketch=1;fontColor=#393C56;opacity=60;fillColor=#A9C4EB;" parent="1" vertex="1">
          <mxGeometry x="930" y="390" width="210" height="100" as="geometry" />
        </mxCell>
        <mxCell id="5SCztgLRrLlrjDLLtxP2-14" value="" style="edgeStyle=orthogonalEdgeStyle;rounded=1;orthogonalLoop=1;jettySize=auto;html=1;strokeColor=#E07A5F;strokeWidth=4;" parent="1" source="5SCztgLRrLlrjDLLtxP2-3" target="5SCztgLRrLlrjDLLtxP2-13" edge="1">
          <mxGeometry relative="1" as="geometry" />
        </mxCell>
        <mxCell id="5SCztgLRrLlrjDLLtxP2-17" style="edgeStyle=orthogonalEdgeStyle;rounded=1;orthogonalLoop=1;jettySize=auto;html=1;strokeColor=#E07A5F;strokeWidth=4;" parent="1" source="5SCztgLRrLlrjDLLtxP2-3" target="5SCztgLRrLlrjDLLtxP2-18" edge="1">
          <mxGeometry relative="1" as="geometry">
            <mxPoint x="1220" y="760" as="targetPoint" />
            <Array as="points">
              <mxPoint x="1035" y="690" />
              <mxPoint x="1220" y="690" />
            </Array>
          </mxGeometry>
        </mxCell>
        <mxCell id="5SCztgLRrLlrjDLLtxP2-3" value="&lt;b&gt;&lt;font style=&quot;font-size: 17px&quot;&gt;美术进度&lt;/font&gt;&lt;/b&gt;" style="rounded=1;whiteSpace=wrap;html=1;strokeWidth=2;fillWeight=4;hachureGap=8;hachureAngle=45;sketch=1;fontColor=#393C56;opacity=60;fillColor=#A9C4EB;" parent="1" vertex="1">
          <mxGeometry x="955" y="595" width="160" height="60" as="geometry" />
        </mxCell>
        <mxCell id="5SCztgLRrLlrjDLLtxP2-4" style="edgeStyle=orthogonalEdgeStyle;curved=0;rounded=1;sketch=0;orthogonalLoop=1;jettySize=auto;html=1;fontColor=#393C56;strokeColor=#E07A5F;strokeWidth=4;fillColor=#F2CC8F;" parent="1" source="5SCztgLRrLlrjDLLtxP2-1" target="5SCztgLRrLlrjDLLtxP2-3" edge="1">
          <mxGeometry relative="1" as="geometry">
            <mxPoint x="1040" y="510" as="sourcePoint" />
          </mxGeometry>
        </mxCell>
        <mxCell id="5SCztgLRrLlrjDLLtxP2-16" value="" style="edgeStyle=orthogonalEdgeStyle;rounded=1;orthogonalLoop=1;jettySize=auto;html=1;strokeColor=#E07A5F;strokeWidth=4;" parent="1" source="5SCztgLRrLlrjDLLtxP2-13" target="5SCztgLRrLlrjDLLtxP2-15" edge="1">
          <mxGeometry relative="1" as="geometry" />
        </mxCell>
        <mxCell id="5SCztgLRrLlrjDLLtxP2-13" value="&lt;b&gt;&lt;font style=&quot;font-size: 17px&quot;&gt;像素画&lt;/font&gt;&lt;/b&gt;" style="rounded=1;whiteSpace=wrap;html=1;strokeWidth=2;fillWeight=4;hachureGap=8;hachureAngle=45;sketch=1;fontColor=#393C56;opacity=60;fillColor=#A9C4EB;" parent="1" vertex="1">
          <mxGeometry x="955" y="735" width="160" height="60" as="geometry" />
        </mxCell>
        <mxCell id="5SCztgLRrLlrjDLLtxP2-15" value="&lt;b&gt;城市建筑&lt;/b&gt;" style="whiteSpace=wrap;html=1;rounded=1;fontColor=#393C56;strokeWidth=2;fillColor=#A9C4EB;opacity=60;sketch=1;fillWeight=4;hachureGap=8;hachureAngle=45;" parent="1" vertex="1">
          <mxGeometry x="975" y="875" width="120" height="60" as="geometry" />
        </mxCell>
        <mxCell id="5SCztgLRrLlrjDLLtxP2-20" value="" style="edgeStyle=orthogonalEdgeStyle;rounded=1;orthogonalLoop=1;jettySize=auto;html=1;strokeColor=#E07A5F;strokeWidth=4;" parent="1" source="5SCztgLRrLlrjDLLtxP2-18" target="5SCztgLRrLlrjDLLtxP2-19" edge="1">
          <mxGeometry relative="1" as="geometry" />
        </mxCell>
        <mxCell id="5SCztgLRrLlrjDLLtxP2-18" value="&lt;b&gt;&lt;font style=&quot;font-size: 17px&quot;&gt;特效&lt;/font&gt;&lt;/b&gt;" style="rounded=1;whiteSpace=wrap;html=1;strokeWidth=2;fillWeight=4;hachureGap=8;hachureAngle=45;sketch=1;fontColor=#393C56;opacity=60;fillColor=#A9C4EB;" parent="1" vertex="1">
          <mxGeometry x="1140" y="740" width="160" height="60" as="geometry" />
        </mxCell>
        <mxCell id="5SCztgLRrLlrjDLLtxP2-19" value="&lt;b&gt;镜头辉光&lt;/b&gt;" style="whiteSpace=wrap;html=1;rounded=1;fontColor=#393C56;strokeWidth=2;fillColor=#A9C4EB;opacity=60;sketch=1;fillWeight=4;hachureGap=8;hachureAngle=45;" parent="1" vertex="1">
          <mxGeometry x="1160" y="875" width="120" height="60" as="geometry" />
        </mxCell>
      </root>
    </mxGraphModel>
  </diagram>
</mxfile>
